<?xml version="1.0" encoding="utf-8"?>
<!-- Generator: Adobe Illustrator 24.3.0, SVG Export Plug-In . SVG Version: 6.00 Build 0)  -->
<svg version="1.1" id="Layer_1" xmlns="http://www.w3.org/2000/svg" xmlns:xlink="http://www.w3.org/1999/xlink" x="0px" y="0px"
	 viewBox="0 0 180 34.6" style="enable-background:new 0 0 180 34.6;" xml:space="preserve">
<style type="text/css">
	.st0{fill:#2FA5B4;}
	.st1{fill:url(#SVGID_1_);}
	.st2{fill:#1C6368;}
	.st3{fill:#3F4040;}
</style>
<g>
	<path class="st0" d="M33.6,0.3v2.3h6.3V20h2.5V2.6h6.3V0.3H33.6z"/>
	<polygon class="st0" points="62.9,0.3 62.9,2.6 52.9,2.6 52.9,8.4 62.4,8.4 62.4,10.8 52.9,10.8 52.9,17.6 62.9,17.6 62.9,20 
		50.4,20 50.4,0.3 	"/>
	<path class="st0" d="M78.7,14l-0.1,0.3c-1,2.5-2.6,3.6-5.1,3.6c-4.6,0-6.2-4.2-6.2-7.7c0-3.6,1.6-7.8,6.1-7.8
		c2.7,0,4.3,1.1,5.2,3.7l0.1,0.3h2.4L81,5.8C80.3,2.2,77.5,0,73.5,0c-6,0-8.7,5.3-8.7,10.1c0,6,3.5,10,8.7,10c3.8,0,6.4-2,7.5-5.6
		l0.2-0.7L78.7,14L78.7,14z"/>
	<path class="st0" d="M96.6,0.3v8.1H86.4V0.3H84V20h2.5v-9.2h10.2V20h2.5V0.3H96.6z"/>
	<path class="st0" d="M115.5,0.3l-3.9,10.2c-0.2,0.5-0.4,1.1-0.6,1.6c-0.6,1.6-1.2,3.2-1.6,4.4c-0.5-1.4-1.2-3.3-1.8-5.1l-4.1-11
		h-2.6l7.3,19.7h2.4l7.6-19.7H115.5z"/>
	<path class="st0" d="M127.8,0c-5.4,0-9,4.1-9,10.1s3.6,10.1,8.8,10.1c6.2,0,9-5.1,9-10.2C136.6,4,133,0,127.8,0L127.8,0z M134,10
		c0,1.8-0.5,7.9-6.3,7.9c-4.4,0-6.3-4.1-6.3-7.8c0-3.5,1.7-7.7,6.4-7.7C132.1,2.4,134,6.2,134,10z"/>
	<path class="st0" d="M147.6,0c-5.4,0-9,4.1-9,10.1s3.6,10.1,8.8,10.1c6.2,0,9-5.1,9-10.2C156.4,4,152.9,0,147.6,0L147.6,0z
		 M153.8,10c0,1.8-0.5,7.9-6.3,7.9c-4.4,0-6.3-4.1-6.3-7.8c0-3.5,1.7-7.7,6.4-7.7C151.9,2.4,153.8,6.2,153.8,10z"/>
	<path class="st0" d="M156.6,0.3v2.3h6.3V20h2.5V2.6h6.3V0.3H156.6z"/>
	
		<linearGradient id="SVGID_1_" gradientUnits="userSpaceOnUse" x1="16.9742" y1="21.804" x2="16.9742" y2="54.0238" gradientTransform="matrix(1 0 0 -1 0 55.4565)">
		<stop  offset="0" style="stop-color:#2FA5B4"/>
		<stop  offset="0.4" style="stop-color:#4DBDC0"/>
	</linearGradient>
	<path class="st1" d="M33.9,17.7c0,9.4-7.6,17-17,17S0,27,0,17.7c0-1.6,0.2-3.1,0.6-4.5h8.5v5c0,1.5,0.4,2.9,1.1,4.1
		c1.4,2.5,4.1,4,7.2,4.1c4.6,0.1,8.2-3.4,8.3-8.2h-4.5c-0.7,2.1-2.2,3.5-3.9,3.4c-0.9,0-2.7-0.7-3.3-2.3c-0.1-0.3-0.1-6.1-0.1-6.1
		h5.3l1.3-2.8l0.2-0.5l0.7-1.5H14V1c1-0.2,2-0.3,3-0.3C26.3,0.7,33.9,8.3,33.9,17.7L33.9,17.7z"/>
	<path class="st2" d="M44.6,30.5c0,1.2-1.1,2-2.5,2c-0.8,0-1.6-0.3-2.1-0.6l0.1-1.5h0.6l0.2,1.2c0.3,0.2,0.6,0.3,1.1,0.3
		c1,0,1.7-0.5,1.7-1.3l0,0c0-0.7-0.4-1-1.4-1.4L42,29.1c-1.1-0.4-1.8-1-1.8-2.1c0-1.2,1-2,2.4-2c0.7,0,1.3,0.2,1.7,0.6L44.2,27h-0.6
		l-0.2-1.2c-0.3-0.2-0.5-0.2-0.9-0.2c-0.8,0-1.5,0.4-1.5,1.2c0,0.7,0.4,1.1,1.2,1.4l0.4,0.2C44.1,28.8,44.6,29.5,44.6,30.5z"/>
	<path class="st2" d="M60.4,29.4c0,1.9-1.4,3.1-2.9,3.1s-2.9-1-2.9-3.1c0-2,1.5-3.1,2.9-3.1S60.4,27.3,60.4,29.4z M57.6,32
		c1.3,0,1.8-1.3,1.8-2.5c0-1.2-0.5-2.5-1.8-2.5c-1.3,0-1.8,1.3-1.8,2.5C55.8,30.6,56.3,32,57.6,32z"/>
	<path class="st2" d="M75.5,30.6l-0.1,1.7h-4.7v-0.4l0.8-0.1c0-0.7,0-1.5,0-2.2v-0.4c0-0.7,0-1.5,0-2.2l-0.8-0.1v-0.4h2.7v0.4
		L72.5,27c0,0.7,0,1.5,0,2.2v0.6c0,0.6,0,1.3,0,2h2l0.3-1.2H75.5z"/>
	<path class="st2" d="M91.3,26.5v0.4L90.5,27v2.9c0,2-1,2.6-2.2,2.6c-1.4,0-2.3-0.7-2.3-2.4v-0.9c0-0.7,0-1.5,0-2.2l-0.7-0.1v-0.4
		h2.7v0.4L87,27c0,0.7,0,1.4,0,2.2v0.6c0,1.5,0.6,1.9,1.5,1.9c1,0,1.6-0.5,1.6-2.1V27l-0.9-0.1v-0.4H91.3z"/>
	<path class="st2" d="M106.3,28.1h-0.6l-0.2-1.1h-1.3c0,0.7,0,1.5,0,2.2v0.4c0,0.7,0,1.5,0,2.2l0.9,0.1v0.4h-2.8v-0.4l0.9-0.1
		c0-0.7,0-1.5,0-2.2v-0.4c0-0.7,0-1.4,0-2.2h-1.3l-0.2,1.1h-0.6l0.1-1.6h5.1L106.3,28.1z"/>
	<path class="st2" d="M118,29.2v0.4c0,0.7,0,1.5,0,2.2l0.8,0.1v0.4h-2.6v-0.4l0.8-0.1c0-0.7,0-1.5,0-2.2v-0.4c0-0.7,0-1.5,0-2.2
		l-0.8-0.1v-0.4h2.6v0.4L118,27C118,27.7,118,28.5,118,29.2z"/>
	<path class="st2" d="M134.9,29.4c0,1.9-1.4,3.1-2.9,3.1c-1.4,0-2.9-1-2.9-3.1c0-2,1.5-3.1,2.9-3.1
		C133.4,26.3,134.9,27.3,134.9,29.4z M132,32c1.3,0,1.8-1.3,1.8-2.5c0-1.2-0.5-2.5-1.8-2.5c-1.3,0-1.8,1.3-1.8,2.5
		C130.2,30.6,130.7,32,132,32z"/>
	<path class="st2" d="M145.8,27L145.8,27L145.8,27L145.8,27z"/>
	<polygon class="st2" points="151.1,26.5 151.1,26.9 150.4,27 150.4,32.4 150,32.4 146.3,27.7 146.3,31.8 147.3,31.9 147.3,32.3 
		145.1,32.3 145.1,31.9 145.8,31.8 145.8,27 145.8,27 145.1,26.9 145.1,26.5 146.6,26.5 149.9,30.6 149.9,27 148.9,26.9 148.9,26.5 
			"/>
	<path class="st2" d="M165.3,30.8c0,1-0.9,1.7-2.2,1.7c-0.7,0-1.4-0.2-1.8-0.5l0.1-1.3h0.6l0.2,1c0.3,0.2,0.5,0.2,0.9,0.2
		c0.9,0,1.4-0.4,1.4-1c0-0.5-0.4-0.7-1.1-1l-0.4-0.1c-1-0.4-1.6-0.9-1.6-1.8c0-1,0.9-1.7,2.1-1.7c0.6,0,1.1,0.2,1.5,0.5l-0.1,1.2
		h-0.6l-0.2-0.9c-0.2-0.1-0.5-0.2-0.7-0.2c-0.7,0-1.2,0.3-1.2,0.9c0,0.5,0.4,0.8,1,1l0.4,0.1C164.8,29.4,165.3,29.9,165.3,30.8z"/>
	<path class="st3" d="M174.5,0.7h-1.1V0.3h2.7v0.4h-1.1v3.2h-0.5L174.5,0.7L174.5,0.7z"/>
	<path class="st3" d="M179.5,2.3c0-0.5-0.1-1.1-0.1-1.6h0c-0.1,0.4-0.3,0.9-0.5,1.4l-0.6,1.7H178l-0.6-1.7c-0.2-0.5-0.3-1-0.4-1.4h0
		c0,0.5,0,1-0.1,1.6l-0.1,1.5h-0.4l0.2-3.6h0.6l0.6,1.7c0.1,0.4,0.3,0.8,0.4,1.2h0c0.1-0.4,0.2-0.8,0.4-1.2l0.6-1.7h0.6l0.2,3.6
		h-0.5L179.5,2.3L179.5,2.3z"/>
</g>
</svg>
