<svg width="218" height="43" viewBox="0 0 218 43" fill="none" xmlns="http://www.w3.org/2000/svg">
<path d="M40.5 0.899414V3.69941H48.1V24.5994H51.1V3.79941H58.7V0.899414H40.5ZM63.1 12.9994H74.6V11.3994H63.1V3.19941H75.2V1.59941H61.3V24.0994H75.4L75.6 22.4994H63.1V12.9994Z" fill="#2FA9BA" style="fill:#2FA9BA;fill:color(display-p3 0.1843 0.6627 0.7294);fill-opacity:1;"/>
<path d="M75.9998 24.6996H60.7998V0.899609H75.7998V3.69961H63.6998V10.6996H75.1998V13.4996H63.6998V21.7996H76.3998L75.9998 24.6996ZM61.9998 23.4996H74.8998L74.9998 23.0996H62.4998V12.3996H73.9998V11.9996H62.4998V2.49961H74.5998V2.19961H61.9998V23.4996ZM94.7998 17.4996L94.5998 17.8996C93.3998 20.8996 91.4998 22.1996 88.4998 22.1996C82.9998 22.1996 80.9998 17.1996 80.9998 12.8996C80.9998 8.59961 82.8998 3.49961 88.2998 3.49961C91.4998 3.49961 93.4998 4.89961 94.4998 7.89961L94.7998 8.29961H97.6998L97.4998 7.59961C96.5998 3.19961 93.2998 0.599609 88.3998 0.599609C81.1998 0.599609 77.8998 6.89961 77.8998 12.7996C77.8998 19.9996 82.0998 24.8996 88.3998 24.8996C92.8998 24.8996 96.1998 22.4996 97.4998 18.1996L97.6998 17.3996L94.7998 17.4996ZM116.5 0.899609V10.6996H104.2V0.899609H101.2V24.6996H104.2V13.5996H116.5V24.6996H119.5V0.899609H116.5ZM139.3 0.899609L134.6 13.1996L133.9 15.0996L131.9 20.3996L129.7 14.1996L124.8 0.899609H121.6L130.4 24.6996H133.3L142.5 0.899609H139.3Z" fill="#2FA9BA" style="fill:#2FA9BA;fill:color(display-p3 0.1843 0.6627 0.7294);fill-opacity:1;"/>
<path d="M154.1 0.599609C147.6 0.599609 143.2 5.49961 143.2 12.7996C143.2 19.9996 147.6 24.9996 153.9 24.9996C161.4 24.9996 164.7 18.7996 164.7 12.5996C164.7 5.49961 160.4 0.599609 154.1 0.599609V0.599609ZM161.6 12.6996C161.6 14.8996 161 22.1996 153.9 22.1996C148.6 22.1996 146.2 17.2996 146.2 12.6996C146.2 8.39961 148.2 3.39961 153.9 3.39961C159.3 3.49961 161.6 8.09961 161.6 12.6996Z" fill="#2FA9BA" style="fill:#2FA9BA;fill:color(display-p3 0.1843 0.6627 0.7294);fill-opacity:1;"/>
<path d="M178 0.599609C171.5 0.599609 167.1 5.49961 167.1 12.7996C167.1 19.9996 171.5 24.9996 177.8 24.9996C185.3 24.9996 188.6 18.7996 188.6 12.5996C188.6 5.49961 184.3 0.599609 178 0.599609V0.599609ZM185.5 12.6996C185.5 14.8996 184.9 22.1996 177.8 22.1996C172.5 22.1996 170.1 17.2996 170.1 12.6996C170.1 8.39961 172.1 3.39961 177.8 3.39961C183.2 3.49961 185.5 8.09961 185.5 12.6996Z" fill="#2FA9BA" style="fill:#2FA9BA;fill:color(display-p3 0.1843 0.6627 0.7294);fill-opacity:1;"/>
<path d="M188.8 0.899414V3.69941H196.4V24.5994H199.4V3.79941H207V0.899414H188.8Z" fill="#2FA9BA" style="fill:#2FA9BA;fill:color(display-p3 0.1843 0.6627 0.7294);fill-opacity:1;"/>
<path d="M40.9 22C40.9 33.3 31.7 42.5 20.4 42.5C9.1 42.4 0 33.2 0 22C0 20.1 0.2 18.3 0.7 16.5H10.9V22.5C10.9 24.4 11.4 26 12.2 27.4C13.9 30.4 17.1 32.3 20.9 32.4C26.4 32.5 30.8 28.3 30.9 22.5H25.5C24.6 25.1 22.9 26.7 20.8 26.6C19.7 26.6 17.6 25.8 16.8 23.8C16.6 23.4 16.7 16.4 16.7 16.4H23.1L24.7 13L25 12.4L25.9 10.5H16.8V1.8C18 1.6 19.2 1.5 20.4 1.5C31.7 1.5 40.9 10.6 40.9 22Z" fill="url(#paint0_linear_1200_1653)" style=""/>
<path d="M52.8002 37.5998C52.8002 36.7998 52.3002 36.3998 51.2002 35.9998L50.7002 35.7998C49.4002 35.2998 48.5002 34.4998 48.5002 33.1998C48.5002 31.6998 49.7002 30.7998 51.4002 30.7998C52.3002 30.7998 52.9002 31.0998 53.5002 31.4998L53.4002 33.1998H52.6002L52.2002 31.2998L53.0002 31.6998V32.2998C52.4002 31.6998 51.9002 31.4998 51.2002 31.4998C50.2002 31.4998 49.4002 31.9998 49.4002 32.9998C49.4002 33.7998 49.9002 34.2998 50.9002 34.5998L51.4002 34.7998C53.1002 35.3998 53.7002 36.1998 53.7002 37.3998C53.7002 38.8998 52.4002 39.7998 50.7002 39.7998C49.7002 39.7998 48.8002 39.4998 48.2002 39.0998L48.3002 37.2998H49.1002L49.4002 39.2998L48.6002 38.8998V38.2998C49.4002 38.8998 49.8002 39.0998 50.7002 39.0998C52.0002 39.1998 52.8002 38.5998 52.8002 37.5998ZM72.9002 36.0998C72.9002 38.3998 71.2002 39.7998 69.5002 39.7998C67.8002 39.7998 66.0002 38.5998 66.0002 36.0998C66.0002 33.7998 67.8002 32.3998 69.5002 32.3998C71.1002 32.3998 72.9002 33.5998 72.9002 36.0998ZM69.4002 39.1998C70.9002 39.1998 71.5002 37.5998 71.5002 36.0998C71.5002 34.5998 70.9002 32.9998 69.4002 32.9998C67.9002 32.9998 67.3002 34.5998 67.3002 36.0998C67.3002 37.5998 67.9002 39.1998 69.4002 39.1998ZM85.2002 33.0998V32.5998H88.4002V33.0998L86.9002 33.2998H86.7002L85.2002 33.0998ZM86.8002 38.8998V39.5998H85.2002V39.0998L86.7002 38.8998H86.8002ZM86.3002 32.4998H87.5002V35.7998V36.5998V39.5998H86.3002V36.2998V35.7998V32.4998ZM91.0002 37.5998L90.9002 39.6998H86.9002V38.9998H90.5002L89.8002 39.5998L90.3002 37.4998H91.0002V37.5998ZM102.8 33.0998V32.5998H106V33.0998L104.5 33.2998H104.3L102.8 33.0998ZM106.7 38.8998C107.9 38.8998 108.6 38.2998 108.6 36.3998V32.5998H109.2V36.6998C109.2 39.0998 108 39.8998 106.5 39.8998C104.9 39.8998 103.7 38.9998 103.7 37.0998V35.9998V32.6998H104.9V35.9998V36.6998C104.9 38.3998 105.6 38.8998 106.7 38.8998ZM108.6 33.1998L107.4 32.9998V32.4998H110.1V32.9998L108.8 33.1998H108.6ZM122.4 33.1998L123 32.5998L122.6 34.4998H121.9L122 32.5998H128.1L128.2 34.4998H127.5L127.1 32.5998L127.7 33.1998H122.4ZM125.2 38.8998L126.8 39.0998V39.5998H123.4V39.0998L125 38.8998H125.2ZM124.5 35.7998V32.4998H125.7V35.7998V36.2998V39.5998H124.5V36.2998V35.7998ZM140.1 33.0998V32.5998H143.3V33.0998L141.8 33.2998H141.6L140.1 33.0998ZM141.9 38.8998L143.4 39.0998V39.5998H140.2V39.0998L141.7 38.8998H141.9ZM141.2 35.7998V32.4998H142.4V35.7998V36.2998V39.5998H141.2V36.2998V35.7998ZM162.6 36.0998C162.6 38.3998 160.9 39.7998 159.2 39.7998C157.5 39.7998 155.7 38.5998 155.7 36.0998C155.7 33.7998 157.5 32.3998 159.2 32.3998C160.9 32.3998 162.6 33.5998 162.6 36.0998ZM159.2 39.1998C160.7 39.1998 161.3 37.5998 161.3 36.0998C161.3 34.5998 160.7 32.9998 159.2 32.9998C157.7 32.9998 157.1 34.5998 157.1 36.0998C157 37.5998 157.6 39.1998 159.2 39.1998ZM174.9 39.0998L176.1 38.8998H176.3L177.6 39.0998V39.5998H174.9V39.0998ZM175.6 32.9998L176.3 33.2998L175 33.0998V32.5998H176.8L181.4 38.2998V39.7998H181L175.6 32.9998ZM175.9 32.7998H176.5V39.5998H175.9V32.7998ZM179.6 32.4998H182.3V32.9998L181.2 33.1998H181L179.6 32.9998V32.4998ZM180.7 32.4998H181.3V39.5998L180.7 38.9998V32.4998ZM198.3 37.9998C198.3 37.3998 197.8 37.0998 197 36.7998L196.6 36.5998C195.5 36.1998 194.6 35.5998 194.6 34.3998C194.6 33.1998 195.7 32.3998 197.2 32.3998C197.9 32.3998 198.6 32.5998 199 32.9998L198.9 34.3998H198.2L197.9 32.6998L198.7 33.0998V33.7998C198.1 33.1998 197.7 32.9998 197.2 32.9998C196.4 32.9998 195.7 33.3998 195.7 34.0998C195.7 34.6998 196.1 35.0998 196.9 35.3998L197.3 35.5998C198.8 36.0998 199.3 36.6998 199.3 37.7998C199.3 39.0998 198.2 39.8998 196.6 39.8998C195.8 39.8998 194.9 39.6998 194.4 39.2998L194.5 37.7998H195.3L195.6 39.4998L194.8 39.0998V38.4998C195.5 38.9998 195.9 39.1998 196.6 39.1998C197.6 39.1998 198.3 38.6998 198.3 37.9998Z" fill="#C6C6C6" style="fill:#C6C6C6;fill:color(display-p3 0.7750 0.7750 0.7750);fill-opacity:1;"/>
<path d="M209.8 5V0.7H208.2V0.1H212.1V0.7H210.5V5H209.8ZM212.7 5V0H213.7L214.9 3.5C215 3.8 215 4.1 215.2 4.2C215.2 4.1 215.3 3.8 215.5 3.5L216.7 0H217.6V5H217V1L215.5 5.2H214.9L213.4 1V5.2L212.7 5Z" fill="#C6C6C6" style="fill:#C6C6C6;fill:color(display-p3 0.7750 0.7750 0.7750);fill-opacity:1;"/>
<defs>
<linearGradient id="paint0_linear_1200_1653" x1="20.434" y1="41.215" x2="20.434" y2="2.346" gradientUnits="userSpaceOnUse">
<stop stop-color="#2FA9BA" style="stop-color:#2FA9BA;stop-color:color(display-p3 0.1843 0.6627 0.7294);stop-opacity:1;"/>
<stop offset="0.404" stop-color="#4DC3C6" style="stop-color:#4DC3C6;stop-color:color(display-p3 0.3020 0.7647 0.7765);stop-opacity:1;"/>
</linearGradient>
</defs>
</svg>
