<svg xmlns="http://www.w3.org/2000/svg" xmlns:xlink="http://www.w3.org/1999/xlink" viewBox="0 0 217.9 42.5" xmlns:v="https://vecta.io/nano"><g fill="#2fa9ba"><path d="M40.7.9v2.8h7.6v20.9h3V3.8h7.6V.9H40.7zM63.3 13h11.5v-1.6H63.3V3.2h12.1V1.6H61.5v22.5h14.1l.2-1.6H63.3V13z"/><path d="M76.2 24.7H61V.9h15v2.8H63.9v7h11.5v2.8H63.9v8.3h12.7l-.4 2.9zm-14-1.2h12.9l.1-.4H62.7V12.4h11.5V12H62.7V2.5h12.1v-.3H62.2v21.3h0zm32.8-6l-.2.4c-1.2 3-3.1 4.3-6.1 4.3-5.5 0-7.5-5-7.5-9.3s1.9-9.4 7.3-9.4c3.2 0 5.2 1.4 6.2 4.4l.3.4h2.9l-.2-.7c-.9-4.4-4.2-7-9.1-7-7.2 0-10.5 6.3-10.5 12.2 0 7.2 4.2 12.1 10.5 12.1 4.5 0 7.8-2.4 9.1-6.7l.2-.8-2.9.1h0zM116.7.9v9.8h-12.3V.9h-3v23.8h3V13.6h12.3v11.1h3V.9h-3zm22.8 0l-4.7 12.3-.7 1.9-2 5.3-2.2-6.2L125 .9h-3.2l8.8 23.8h2.9L142.7.9h-3.2z"/><use xlink:href="#C"/><use xlink:href="#C" x="23.9"/><path d="M189 .9v2.8h7.6v20.9h3V3.8h7.6V.9H189z"/></g><linearGradient id="A" gradientUnits="userSpaceOnUse" x1="20.634" y1="41.215" x2="20.634" y2="2.346"><stop offset="0" stop-color="#2fa9ba"/><stop offset=".404" stop-color="#4dc3c6"/></linearGradient><path d="M41.1 22c0 11.3-9.2 20.5-20.5 20.5C9.3 42.4.2 33.2.2 22c0-1.9.2-3.7.7-5.5h10.2v6c0 1.9.5 3.5 1.3 4.9 1.7 3 4.9 4.9 8.7 5 5.5.1 9.9-4.1 10-9.9h-5.4c-.9 2.6-2.6 4.2-4.7 4.1-1.1 0-3.2-.8-4-2.8-.2-.4-.1-7.4-.1-7.4h6.4l1.6-3.4.3-.6.9-1.9H17V1.8c1.2-.2 2.4-.3 3.6-.3 11.3 0 20.5 9.1 20.5 20.5z" fill="url(#A)"/><path d="M53 37.6c0-.8-.5-1.2-1.6-1.6l-.5-.2c-1.3-.5-2.2-1.3-2.2-2.6 0-1.5 1.2-2.4 2.9-2.4.9 0 1.5.3 2.1.7l-.1 1.7h-.8l-.4-1.9.8.4v.6c-.6-.6-1.1-.8-1.8-.8-1 0-1.8.5-1.8 1.5 0 .8.5 1.3 1.5 1.6l.5.2c1.7.6 2.3 1.4 2.3 2.6 0 1.5-1.3 2.4-3 2.4-1 0-1.9-.3-2.5-.7l.1-1.8h.8l.3 2-.8-.4v-.6c.8.6 1.2.8 2.1.8 1.3.1 2.1-.5 2.1-1.5zm20.1-1.5c0 2.3-1.7 3.7-3.4 3.7s-3.5-1.2-3.5-3.7c0-2.3 1.8-3.7 3.5-3.7 1.6 0 3.4 1.2 3.4 3.7zm-3.5 3.1c1.5 0 2.1-1.6 2.1-3.1s-.6-3.1-2.1-3.1-2.1 1.6-2.1 3.1.6 3.1 2.1 3.1zm15.8-6.1v-.5h3.2v.5l-1.5.2h-.2l-1.5-.2zm1.6 5.8v.7h-1.6v-.5l1.5-.2h.1zm-.5-6.4h1.2v3.3.8 3h-1.2v-3.3-.5-3.3zm4.7 5.1l-.1 2.1h-4V39h3.6l-.7.6.5-2.1h.7zm11.8-4.5v-.5h3.2v.5l-1.5.2h-.2l-1.5-.2zm3.9 5.8c1.2 0 1.9-.6 1.9-2.5v-3.8h.6v4.1c0 2.4-1.2 3.2-2.7 3.2-1.6 0-2.8-.9-2.8-2.8V36v-3.3h1.2V36v.7c0 1.7.7 2.2 1.8 2.2zm1.9-5.7l-1.2-.2v-.5h2.7v.5l-1.3.2h-.2zm13.8 0l.6-.6-.4 1.9h-.7l.1-1.9h6.1l.1 1.9h-.7l-.4-1.9.6.6h-5.3zm2.8 5.7l1.6.2v.5h-3.4v-.5l1.6-.2h.2zm-.7-3.1v-3.3h1.2v3.3.5 3.3h-1.2v-3.3-.5zm15.6-2.7v-.5h3.2v.5l-1.5.2h-.2l-1.5-.2zm1.8 5.8l1.5.2v.5h-3.2v-.5l1.5-.2h.2zm-.7-3.1v-3.3h1.2v3.3.5 3.3h-1.2v-3.3-.5zm21.4.3c0 2.3-1.7 3.7-3.4 3.7s-3.5-1.2-3.5-3.7c0-2.3 1.8-3.7 3.5-3.7s3.4 1.2 3.4 3.7zm-3.4 3.1c1.5 0 2.1-1.6 2.1-3.1s-.6-3.1-2.1-3.1-2.1 1.6-2.1 3.1c-.1 1.5.5 3.1 2.1 3.1zm15.7-.1l1.2-.2h.2l1.3.2v.5h-2.7v-.5zm.7-6.1l.7.3-1.3-.2v-.5h1.8l4.6 5.7v1.5h-.4l-5.4-6.8zm.3-.2h.6v6.8h-.6v-6.8zm3.7-.3h2.7v.5l-1.1.2h-.2l-1.4-.2v-.5zm1.1 0h.6v7.1l-.6-.6v-6.5zm17.6 5.5c0-.6-.5-.9-1.3-1.2l-.4-.2c-1.1-.4-2-1-2-2.2s1.1-2 2.6-2c.7 0 1.4.2 1.8.6l-.1 1.4h-.7l-.3-1.7.8.4v.7c-.6-.6-1-.8-1.5-.8-.8 0-1.5.4-1.5 1.1 0 .6.4 1 1.2 1.3l.4.2c1.5.5 2 1.1 2 2.2 0 1.3-1.1 2.1-2.7 2.1-.8 0-1.7-.2-2.2-.6l.1-1.5h.8l.3 1.7-.8-.4v-.6c.7.5 1.1.7 1.8.7 1 0 1.7-.5 1.7-1.2z" fill="#1c6268"/><path d="M210 5V.7h-1.6V.1h3.9v.6h-1.6V5h-.7zm2.9 0V0h1l1.2 3.5c.1.3.1.6.3.7 0-.1.1-.4.3-.7l1.2-3.5h.9v5h-.6V1l-1.5 4.2h-.6L213.6 1v4.2l-.7-.2h0z" enable-background="new" fill="#1c6268"/><defs ><path id="C" d="M154.3.6c-6.5 0-10.9 4.9-10.9 12.2 0 7.2 4.4 12.2 10.7 12.2 7.5 0 10.8-6.2 10.8-12.4 0-7.1-4.3-12-10.6-12zm7.5 12.1c0 2.2-.6 9.5-7.7 9.5-5.3 0-7.7-4.9-7.7-9.5 0-4.3 2-9.3 7.7-9.3 5.4.1 7.7 4.7 7.7 9.3z"/></defs></svg>